<?xml version="1.0" encoding="iso-8859-1"?>
<!-- Uploaded to: SVG Repo, www.svgrepo.com, Generator: SVG Repo Mixer Tools -->
<svg height="800px" width="800px" version="1.1" id="Layer_1" xmlns="http://www.w3.org/2000/svg" xmlns:xlink="http://www.w3.org/1999/xlink" 
	 viewBox="0 0 512 512" xml:space="preserve">
<path style="fill:#24AE5F;" d="M141.241,88.276V35.31h17.655V0H52.966v35.31h17.655v114.759l-49.434,42.372
	c-7.062,7.062-2.648,19.421,7.062,19.421h42.372V476.69H52.966V512h406.069v-35.31h-17.655V211.862h42.372
	c9.71,0,14.124-12.359,7.062-18.538L287.779,13.241c-17.655-16.772-45.903-16.772-63.559,0L141.241,88.276z"/>
<path style="fill:#ECF1F1;" d="M400.772,420.193l-95.338-95.338c13.241-16.772,21.186-37.076,21.186-60.028
	c0-53.848-43.255-97.103-97.103-97.103s-97.103,43.255-97.103,97.103s43.255,97.103,97.103,97.103
	c18.538,0,35.31-5.297,49.434-14.124l97.103,97.103L400.772,420.193z"/>
<path style="fill:#7DC0E0;" d="M229.517,326.621c-34.428,0-61.793-27.366-61.793-61.793s27.366-61.793,61.793-61.793
	s61.793,27.366,61.793,61.793C291.31,299.255,263.945,326.621,229.517,326.621"/>
</svg>